<?xml version="1.0" standalone="no"?>
<!DOCTYPE svg PUBLIC "-//W3C//DTD SVG 20010904//EN"
 "http://www.w3.org/TR/2001/REC-SVG-20010904/DTD/svg10.dtd">
<svg version="1.0" xmlns="http://www.w3.org/2000/svg"
 width="650.000000pt" height="650.000000pt" viewBox="0 0 650.000000 650.000000"
 preserveAspectRatio="xMidYMid meet">
<metadata>
Created by potrace 1.11, written by Peter Selinger 2001-2013
</metadata>
<g transform="translate(0.000000,650.000000) scale(0.100000,-0.100000)"
fill="#000000" stroke="none">
<path d="M5329 6215 c-115 -40 -231 -143 -292 -261 -135 -261 -45 -522 181
-525 227 -3 452 230 470 487 12 187 -96 318 -259 313 -35 -1 -80 -8 -100 -14z"/>
<path d="M3400 5876 c-159 -34 -310 -180 -371 -358 -31 -90 -31 -214 1 -286
100 -229 422 -187 599 79 196 294 61 627 -229 565z"/>
<path d="M4820 5063 c-89 -27 -189 -93 -276 -184 -112 -118 -162 -197 -267
-429 -93 -204 -178 -382 -328 -685 -810 -1640 -1478 -2503 -1999 -2583 -288
-44 -410 95 -363 413 41 279 201 675 471 1167 45 80 92 165 106 187 14 22 26
42 26 45 0 7 180 300 280 456 124 195 295 446 454 668 72 101 157 220 189 265
133 186 146 298 42 343 -39 16 -151 11 -235 -11 -76 -19 -228 -89 -297 -136
-46 -31 -139 -120 -193 -184 -31 -36 -222 -258 -259 -300 -14 -16 -44 -52 -66
-80 -22 -27 -42 -52 -45 -55 -3 -3 -24 -27 -45 -55 -22 -27 -42 -52 -45 -55
-12 -11 -152 -193 -236 -305 -401 -536 -606 -891 -769 -1326 -49 -130 -123
-375 -130 -429 -3 -19 -9 -60 -15 -90 -16 -92 -5 -371 18 -485 23 -109 70
-251 109 -330 95 -188 269 -355 418 -399 53 -16 190 -19 261 -4 154 30 388
134 569 252 305 199 466 336 716 607 362 394 484 539 740 884 36 49 264 392
344 518 63 99 426 702 491 815 32 57 64 111 69 120 6 9 35 60 65 112 30 52 60
103 65 112 6 9 38 65 71 125 182 322 281 526 299 618 33 164 -30 371 -124 406
-31 12 -90 18 -111 12z"/>
</g>
</svg>
